# xmcd
#
# Track frame offsets:
#	150
#	14144
#	27624
#	40878
#	49920
#	64777
#	80042
#	91834
#	109119
#	124377
#	136386
#	148257
#	161758
#
# Disc length: 2324 seconds
#
# Revision: 0
# Processed by: cddbd v1.5.2PL0 Copyright (c) Steve Scherf et al.
# Submitted via: dBpowerAMP V4.0
#
DISCID=c409120d
DTITLE=Dixie Aces - Crazy Mixed Emotions, CD 1
DYEAR=2007
DGENRE=
TTITLE0=01 - Too much for me
TTITLE1=02 - We work it out
TTITLE2=03 - (Do you) hide your heart
TTITLE3=04 - I got a feeling
TTITLE4=05 - Love me do
TTITLE5=06 - Closer
TTITLE6=07 - Do you wanna dance
TTITLE7=08 - Runaway
TTITLE8=09 - It's a heartache
TTITLE9=10 - (I'm in love with) La Linda
TTITLE10=11 - Playin' every honky tonk in town
TTITLE11=12 - Little Chapel
TTITLE12=13 - Crazy mixed emotions
EXTD=
EXTT0=
EXTT1=
EXTT2=
EXTT3=
EXTT4=
EXTT5=
EXTT6=
EXTT7=
EXTT8=
EXTT9=
EXTT10=
EXTT11=
EXTT12=
PLAYORDER=
